<svg viewBox="0 0 25 25" fill="none" xmlns="http://www.w3.org/2000/svg"><g clip-path="url(#a)"><path fill="#fff" d="M0 0h25v25h-25z"/><path d="m24.87 18.08-5.02-5.61h2.43a.5.5 0 0 0 .5-.5.5.5 0 0 0-.1-.3l-4.03-5.18h2.05a.5.5 0 0 0 .52-.5.5.5 0 0 0-.13-.34l-4.94-5.48a.52.52 0 0 0-.76 0l-4.94 5.48a.5.5 0 0 0 .03.7c.1.09.22.14.35.14h2.08l-1.24 1.58-3.33-3.7a.52.52 0 0 0-.77 0l-4.22 4.7a.5.5 0 0 0 .05.7c.1.08.21.12.34.12h1.62l-3.37 4.32a.5.5 0 0 0 .11.7c.09.06.19.1.3.1h1.9l-4.18 4.68a.5.5 0 0 0 .06.7c.1.09.2.13.33.13h5.67v3.5a1 1 0 0 0 1 .98h1.56c.55 0 1-.43 1-.97v-3.51h4.26v3.5c0 .54.44.98.99.98h1.56a1 1 0 0 0 1-.97v-5.11h6.94a.5.5 0 0 0 .51-.5.5.5 0 0 0-.13-.34Zm-16.16 5.92-1.5.03-.04-3.51h1.54v3.48Zm5.29-4.48h-12.36l4.2-4.68a.5.5 0 0 0-.05-.7.52.52 0 0 0-.35-.14h-2l3.37-4.31a.5.5 0 0 0-.1-.7.52.52 0 0 0-.3-.1h-1.54l3.07-3.43 3.08 3.41-2.16 2.8a.5.5 0 0 0 .09.7c.09.07.2.1.31.1h2.43l-5.02 5.62a.5.5 0 0 0 .05.7c.1.09.21.13.34.13h6.94v.6Zm2.52 4.47-1.5.04-.03-5.11h1.54v5.07Zm.03-6.08h-8.37l5.03-5.61a.5.5 0 0 0-.05-.7.52.52 0 0 0-.34-.13h-2.52l4.05-5.19a.5.5 0 0 0-.1-.7.52.52 0 0 0-.3-.1h-1.96l3.8-4.22 3.78 4.22h-1.97a.5.5 0 0 0-.52.5c0 .12.04.22.11.31l4.03 5.18h-2.5a.5.5 0 0 0-.51.5c0 .12.04.24.12.33l5.02 5.61h-6.8Z" fill="#2D383F"/></g><defs><clipPath id="a"><path fill="#fff" d="M0 0h25v25h-25z"/></clipPath></defs></svg>